{
	"asset":{
		"generator":"Khronos glTF Blender I/O v4.0.44",
		"version":"2.0"
	},
	"scene":0,
	"scenes":[
		{
			"name":"Scene",
			"nodes":[
				0,
				1,
				2,
				3,
				4
			]
		}
	],
	"nodes":[
		{
			"mesh":0,
			"name":"Desk",
			"rotation":[
				-0.0004999309312552214,
				0.017649680376052856,
				-0.0008247802034020424,
				0.9998438954353333
			],
			"translation":[
				0.008417714387178421,
				0.751530647277832,
				-0.11971884965896606
			]
		},
		{
			"mesh":1,
			"name":"Leg1",
			"rotation":[
				-0.0008247721707448363,
				-0.9998437762260437,
				0.0004997721989639103,
				0.017649414017796516
			],
			"scale":[
				-1,
				-1.007760763168335,
				-1
			],
			"translation":[
				0.8849331736564636,
				0.08592236042022705,
				0.20487236976623535
			]
		},
		{
			"mesh":2,
			"name":"Leg2",
			"rotation":[
				-0.0008247721707448363,
				-0.9998437762260437,
				0.0004997721989639103,
				0.017649414017796516
			],
			"scale":[
				-1,
				-1.007760763168335,
				-1
			],
			"translation":[
				0.8602702617645264,
				0.08524420857429504,
				-0.4934621751308441
			]
		},
		{
			"mesh":3,
			"name":"Leg3",
			"rotation":[
				0.01764989085495472,
				0.0004998916410841048,
				0.9998437762260437,
				0.0008247630903497338
			],
			"scale":[
				1,
				1.007760763168335,
				1
			],
			"translation":[
				-0.8551645874977112,
				0.08882474899291992,
				0.2663240432739258
			]
		},
		{
			"mesh":4,
			"name":"Leg4",
			"rotation":[
				-0.0008247721707448363,
				-0.9998437762260437,
				0.0004997721989639103,
				0.017649414017796516
			],
			"scale":[
				-1,
				-1.007760763168335,
				-1
			],
			"translation":[
				-0.8798274397850037,
				0.0881466269493103,
				-0.4320104420185089
			]
		}
	],
	"meshes":[
		{
			"name":"Cube.001",
			"primitives":[
				{
					"attributes":{
						"POSITION":0,
						"NORMAL":1,
						"TEXCOORD_0":2
					},
					"indices":3
				}
			]
		},
		{
			"name":"Cube.002",
			"primitives":[
				{
					"attributes":{
						"POSITION":4,
						"NORMAL":5,
						"TEXCOORD_0":6
					},
					"indices":3
				}
			]
		},
		{
			"name":"Cube.004",
			"primitives":[
				{
					"attributes":{
						"POSITION":7,
						"NORMAL":8,
						"TEXCOORD_0":9
					},
					"indices":3
				}
			]
		},
		{
			"name":"Cube.006",
			"primitives":[
				{
					"attributes":{
						"POSITION":10,
						"NORMAL":11,
						"TEXCOORD_0":12
					},
					"indices":3
				}
			]
		},
		{
			"name":"Cube.007",
			"primitives":[
				{
					"attributes":{
						"POSITION":13,
						"NORMAL":14,
						"TEXCOORD_0":15
					},
					"indices":3
				}
			]
		}
	],
	"accessors":[
		{
			"bufferView":0,
			"componentType":5126,
			"count":24,
			"max":[
				1.0072576999664307,
				0.03485536575317383,
				0.49944019317626953
			],
			"min":[
				-1.0072576999664307,
				-0.03485536575317383,
				-0.49944019317626953
			],
			"type":"VEC3"
		},
		{
			"bufferView":1,
			"componentType":5126,
			"count":24,
			"type":"VEC3"
		},
		{
			"bufferView":2,
			"componentType":5126,
			"count":24,
			"type":"VEC2"
		},
		{
			"bufferView":3,
			"componentType":5123,
			"count":36,
			"type":"SCALAR"
		},
		{
			"bufferView":4,
			"componentType":5126,
			"count":24,
			"max":[
				0.055032551288604736,
				0.12593120336532593,
				0.055032551288604736
			],
			"min":[
				-0.055032551288604736,
				-0.629656195640564,
				-0.055032551288604736
			],
			"type":"VEC3"
		},
		{
			"bufferView":5,
			"componentType":5126,
			"count":24,
			"type":"VEC3"
		},
		{
			"bufferView":6,
			"componentType":5126,
			"count":24,
			"type":"VEC2"
		},
		{
			"bufferView":7,
			"componentType":5126,
			"count":24,
			"max":[
				0.055032551288604736,
				0.12593120336532593,
				0.055032551288604736
			],
			"min":[
				-0.055032551288604736,
				-0.629656195640564,
				-0.055032551288604736
			],
			"type":"VEC3"
		},
		{
			"bufferView":8,
			"componentType":5126,
			"count":24,
			"type":"VEC3"
		},
		{
			"bufferView":9,
			"componentType":5126,
			"count":24,
			"type":"VEC2"
		},
		{
			"bufferView":10,
			"componentType":5126,
			"count":24,
			"max":[
				0.055032551288604736,
				0.12593120336532593,
				0.055032551288604736
			],
			"min":[
				-0.055032551288604736,
				-0.629656195640564,
				-0.055032551288604736
			],
			"type":"VEC3"
		},
		{
			"bufferView":11,
			"componentType":5126,
			"count":24,
			"type":"VEC3"
		},
		{
			"bufferView":12,
			"componentType":5126,
			"count":24,
			"type":"VEC2"
		},
		{
			"bufferView":13,
			"componentType":5126,
			"count":24,
			"max":[
				0.055032551288604736,
				0.12593120336532593,
				0.055032551288604736
			],
			"min":[
				-0.055032551288604736,
				-0.629656195640564,
				-0.055032551288604736
			],
			"type":"VEC3"
		},
		{
			"bufferView":14,
			"componentType":5126,
			"count":24,
			"type":"VEC3"
		},
		{
			"bufferView":15,
			"componentType":5126,
			"count":24,
			"type":"VEC2"
		}
	],
	"bufferViews":[
		{
			"buffer":0,
			"byteLength":288,
			"byteOffset":0,
			"target":34962
		},
		{
			"buffer":0,
			"byteLength":288,
			"byteOffset":288,
			"target":34962
		},
		{
			"buffer":0,
			"byteLength":192,
			"byteOffset":576,
			"target":34962
		},
		{
			"buffer":0,
			"byteLength":72,
			"byteOffset":768,
			"target":34963
		},
		{
			"buffer":0,
			"byteLength":288,
			"byteOffset":840,
			"target":34962
		},
		{
			"buffer":0,
			"byteLength":288,
			"byteOffset":1128,
			"target":34962
		},
		{
			"buffer":0,
			"byteLength":192,
			"byteOffset":1416,
			"target":34962
		},
		{
			"buffer":0,
			"byteLength":288,
			"byteOffset":1608,
			"target":34962
		},
		{
			"buffer":0,
			"byteLength":288,
			"byteOffset":1896,
			"target":34962
		},
		{
			"buffer":0,
			"byteLength":192,
			"byteOffset":2184,
			"target":34962
		},
		{
			"buffer":0,
			"byteLength":288,
			"byteOffset":2376,
			"target":34962
		},
		{
			"buffer":0,
			"byteLength":288,
			"byteOffset":2664,
			"target":34962
		},
		{
			"buffer":0,
			"byteLength":192,
			"byteOffset":2952,
			"target":34962
		},
		{
			"buffer":0,
			"byteLength":288,
			"byteOffset":3144,
			"target":34962
		},
		{
			"buffer":0,
			"byteLength":288,
			"byteOffset":3432,
			"target":34962
		},
		{
			"buffer":0,
			"byteLength":192,
			"byteOffset":3720,
			"target":34962
		}
	],
	"buffers":[
		{
			"byteLength":3912,
			"uri":"Table_type_01.bin"
		}
	]
}
