{
	"asset":{
		"generator":"Khronos glTF Blender I/O v4.0.44",
		"version":"2.0"
	},
	"scene":0,
	"scenes":[
		{
			"name":"Scene",
			"nodes":[
				0,
				1,
				2,
				3,
				4,
				5
			]
		}
	],
	"nodes":[
		{
			"mesh":0,
			"name":"Table top"
		},
		{
			"mesh":1,
			"name":"Leg",
			"translation":[
				6.747111001459416e-06,
				0.12017650902271271,
				0
			]
		},
		{
			"mesh":2,
			"name":"Leg.002",
			"translation":[
				6.747111001459416e-06,
				0.12017650902271271,
				0
			]
		},
		{
			"mesh":3,
			"name":"Leg.003",
			"translation":[
				6.747111001459416e-06,
				0.12017650902271271,
				0
			]
		},
		{
			"mesh":4,
			"name":"Leg.004",
			"translation":[
				6.747111001459416e-06,
				0.12017650902271271,
				0
			]
		},
		{
			"mesh":5,
			"name":"Leg.006",
			"translation":[
				6.747111001459416e-06,
				0.12017650902271271,
				0
			]
		}
	],
	"meshes":[
		{
			"name":"mesh-d12af61f-fb17-47b2-9a0b-e921d5b62553.001",
			"primitives":[
				{
					"attributes":{
						"POSITION":0,
						"NORMAL":1,
						"TEXCOORD_0":2,
						"TEXCOORD_1":3
					},
					"indices":4
				}
			]
		},
		{
			"name":"mesh-b01622f1-1358-44e7-8751-83a46a6a9390.002",
			"primitives":[
				{
					"attributes":{
						"POSITION":5,
						"NORMAL":6,
						"TEXCOORD_0":7,
						"TEXCOORD_1":8
					},
					"indices":9
				}
			]
		},
		{
			"name":"mesh-b01622f1-1358-44e7-8751-83a46a6a9390.007",
			"primitives":[
				{
					"attributes":{
						"POSITION":10,
						"NORMAL":11,
						"TEXCOORD_0":12,
						"TEXCOORD_1":13
					},
					"indices":14
				}
			]
		},
		{
			"name":"mesh-b01622f1-1358-44e7-8751-83a46a6a9390.008",
			"primitives":[
				{
					"attributes":{
						"POSITION":15,
						"NORMAL":16,
						"TEXCOORD_0":17,
						"TEXCOORD_1":18
					},
					"indices":19
				}
			]
		},
		{
			"name":"mesh-b01622f1-1358-44e7-8751-83a46a6a9390.009",
			"primitives":[
				{
					"attributes":{
						"POSITION":20,
						"NORMAL":21,
						"TEXCOORD_0":22,
						"TEXCOORD_1":23
					},
					"indices":24
				}
			]
		},
		{
			"name":"mesh-b01622f1-1358-44e7-8751-83a46a6a9390.011",
			"primitives":[
				{
					"attributes":{
						"POSITION":25,
						"NORMAL":26,
						"TEXCOORD_0":27,
						"TEXCOORD_1":28
					},
					"indices":29
				}
			]
		}
	],
	"accessors":[
		{
			"bufferView":0,
			"componentType":5126,
			"count":802,
			"max":[
				1.1050071716308594,
				0.7689999341964722,
				0.5
			],
			"min":[
				-1.1049928665161133,
				0.7289999127388,
				-0.5
			],
			"type":"VEC3"
		},
		{
			"bufferView":1,
			"componentType":5126,
			"count":802,
			"type":"VEC3"
		},
		{
			"bufferView":2,
			"componentType":5126,
			"count":802,
			"type":"VEC2"
		},
		{
			"bufferView":3,
			"componentType":5126,
			"count":802,
			"type":"VEC2"
		},
		{
			"bufferView":4,
			"componentType":5123,
			"count":3360,
			"type":"SCALAR"
		},
		{
			"bufferView":5,
			"componentType":5126,
			"count":607,
			"max":[
				-0.8950439095497131,
				0.6088235378265381,
				0.37994876503944397
			],
			"min":[
				-0.9849579334259033,
				-0.11317745596170425,
				0.29004886746406555
			],
			"type":"VEC3"
		},
		{
			"bufferView":6,
			"componentType":5126,
			"count":607,
			"type":"VEC3"
		},
		{
			"bufferView":7,
			"componentType":5126,
			"count":607,
			"type":"VEC2"
		},
		{
			"bufferView":8,
			"componentType":5126,
			"count":607,
			"type":"VEC2"
		},
		{
			"bufferView":9,
			"componentType":5123,
			"count":2802,
			"type":"SCALAR"
		},
		{
			"bufferView":10,
			"componentType":5126,
			"count":607,
			"max":[
				0.9849581718444824,
				0.6088235378265381,
				0.37994876503944397
			],
			"min":[
				0.8950440883636475,
				-0.11317745596170425,
				0.29004886746406555
			],
			"type":"VEC3"
		},
		{
			"bufferView":11,
			"componentType":5126,
			"count":607,
			"type":"VEC3"
		},
		{
			"bufferView":12,
			"componentType":5126,
			"count":607,
			"type":"VEC2"
		},
		{
			"bufferView":13,
			"componentType":5126,
			"count":607,
			"type":"VEC2"
		},
		{
			"bufferView":14,
			"componentType":5123,
			"count":2802,
			"type":"SCALAR"
		},
		{
			"bufferView":15,
			"componentType":5126,
			"count":2050,
			"max":[
				0.9503668546676636,
				-0.11317650973796844,
				0.34536731243133545
			],
			"min":[
				0.9296324849128723,
				-0.1201767846941948,
				0.3246326446533203
			],
			"type":"VEC3"
		},
		{
			"bufferView":16,
			"componentType":5126,
			"count":2050,
			"type":"VEC3"
		},
		{
			"bufferView":17,
			"componentType":5126,
			"count":2050,
			"type":"VEC2"
		},
		{
			"bufferView":18,
			"componentType":5126,
			"count":2050,
			"type":"VEC2"
		},
		{
			"bufferView":19,
			"componentType":5123,
			"count":4608,
			"type":"SCALAR"
		},
		{
			"bufferView":20,
			"componentType":5126,
			"count":606,
			"max":[
				-0.8950439095497131,
				0.6088235378265381,
				-0.29004886746406555
			],
			"min":[
				-0.9849579334259033,
				-0.11317745596170425,
				-0.37994876503944397
			],
			"type":"VEC3"
		},
		{
			"bufferView":21,
			"componentType":5126,
			"count":606,
			"type":"VEC3"
		},
		{
			"bufferView":22,
			"componentType":5126,
			"count":606,
			"type":"VEC2"
		},
		{
			"bufferView":23,
			"componentType":5126,
			"count":606,
			"type":"VEC2"
		},
		{
			"bufferView":24,
			"componentType":5123,
			"count":2802,
			"type":"SCALAR"
		},
		{
			"bufferView":25,
			"componentType":5126,
			"count":607,
			"max":[
				0.9849581718444824,
				0.6088235378265381,
				-0.29004886746406555
			],
			"min":[
				0.8950440883636475,
				-0.11317745596170425,
				-0.37994876503944397
			],
			"type":"VEC3"
		},
		{
			"bufferView":26,
			"componentType":5126,
			"count":607,
			"type":"VEC3"
		},
		{
			"bufferView":27,
			"componentType":5126,
			"count":607,
			"type":"VEC2"
		},
		{
			"bufferView":28,
			"componentType":5126,
			"count":607,
			"type":"VEC2"
		},
		{
			"bufferView":29,
			"componentType":5123,
			"count":2802,
			"type":"SCALAR"
		}
	],
	"bufferViews":[
		{
			"buffer":0,
			"byteLength":9624,
			"byteOffset":0,
			"target":34962
		},
		{
			"buffer":0,
			"byteLength":9624,
			"byteOffset":9624,
			"target":34962
		},
		{
			"buffer":0,
			"byteLength":6416,
			"byteOffset":19248,
			"target":34962
		},
		{
			"buffer":0,
			"byteLength":6416,
			"byteOffset":25664,
			"target":34962
		},
		{
			"buffer":0,
			"byteLength":6720,
			"byteOffset":32080,
			"target":34963
		},
		{
			"buffer":0,
			"byteLength":7284,
			"byteOffset":38800,
			"target":34962
		},
		{
			"buffer":0,
			"byteLength":7284,
			"byteOffset":46084,
			"target":34962
		},
		{
			"buffer":0,
			"byteLength":4856,
			"byteOffset":53368,
			"target":34962
		},
		{
			"buffer":0,
			"byteLength":4856,
			"byteOffset":58224,
			"target":34962
		},
		{
			"buffer":0,
			"byteLength":5604,
			"byteOffset":63080,
			"target":34963
		},
		{
			"buffer":0,
			"byteLength":7284,
			"byteOffset":68684,
			"target":34962
		},
		{
			"buffer":0,
			"byteLength":7284,
			"byteOffset":75968,
			"target":34962
		},
		{
			"buffer":0,
			"byteLength":4856,
			"byteOffset":83252,
			"target":34962
		},
		{
			"buffer":0,
			"byteLength":4856,
			"byteOffset":88108,
			"target":34962
		},
		{
			"buffer":0,
			"byteLength":5604,
			"byteOffset":92964,
			"target":34963
		},
		{
			"buffer":0,
			"byteLength":24600,
			"byteOffset":98568,
			"target":34962
		},
		{
			"buffer":0,
			"byteLength":24600,
			"byteOffset":123168,
			"target":34962
		},
		{
			"buffer":0,
			"byteLength":16400,
			"byteOffset":147768,
			"target":34962
		},
		{
			"buffer":0,
			"byteLength":16400,
			"byteOffset":164168,
			"target":34962
		},
		{
			"buffer":0,
			"byteLength":9216,
			"byteOffset":180568,
			"target":34963
		},
		{
			"buffer":0,
			"byteLength":7272,
			"byteOffset":189784,
			"target":34962
		},
		{
			"buffer":0,
			"byteLength":7272,
			"byteOffset":197056,
			"target":34962
		},
		{
			"buffer":0,
			"byteLength":4848,
			"byteOffset":204328,
			"target":34962
		},
		{
			"buffer":0,
			"byteLength":4848,
			"byteOffset":209176,
			"target":34962
		},
		{
			"buffer":0,
			"byteLength":5604,
			"byteOffset":214024,
			"target":34963
		},
		{
			"buffer":0,
			"byteLength":7284,
			"byteOffset":219628,
			"target":34962
		},
		{
			"buffer":0,
			"byteLength":7284,
			"byteOffset":226912,
			"target":34962
		},
		{
			"buffer":0,
			"byteLength":4856,
			"byteOffset":234196,
			"target":34962
		},
		{
			"buffer":0,
			"byteLength":4856,
			"byteOffset":239052,
			"target":34962
		},
		{
			"buffer":0,
			"byteLength":5604,
			"byteOffset":243908,
			"target":34963
		}
	],
	"buffers":[
		{
			"byteLength":249512,
			"uri":"Table.bin"
		}
	]
}
